<svg width="441" height="441" version="1.1" xmlns="http://www.w3.org/2000/svg" desc="Created with imagetracer.js version 1.2.6" ><path fill="rgb(0,0,0)" stroke="rgb(0,0,0)" stroke-width="1" opacity="0" d="M 0 0 L 441 0 L 441 441 L 154 440.5 L 176.5 429 Q 182.5 430 184.5 427 L 203.5 427 L 204.5 428 L 218.5 428 L 223 422.5 Q 221.6 408.9 224 401 L 227.5 399 L 236.5 399 L 240 396.5 L 241.5 394 L 244 392.5 L 244 390.5 L 249.5 384 L 252 382.5 Q 251.3 378.8 253.5 378 L 269.5 377 L 272 376 L 273 371.5 L 269 357.5 L 269 341.5 L 268 336.5 L 269 334.5 L 265.5 329 L 257.5 326 L 226.5 325 L 212.5 322 Q 211.3 324.3 206.5 323 L 203.5 321 L 199.5 322 Q 197.9 317.7 192 319 L 192 308.5 Q 197 305.5 196 298 Q 200.6 299.3 202 296.5 L 203.5 294 L 209.5 295 Q 212 293.8 211 290 L 218.5 289 L 220 287.5 Q 219.3 285.3 221.5 286 L 224.5 284 L 226.5 284 L 230.5 283 L 232.5 283 L 244 279 L 237.5 271 Q 229.2 269.8 224.5 272 Q 221.5 270.5 224.5 269 L 235.5 261 L 240 260 Q 238.9 257.3 241.5 258 L 245 255.5 Q 244.3 253.3 246.5 254 L 263 238.5 L 264.5 236 L 267 234.5 L 283 212.5 L 284 207.5 L 291 197.5 L 292 184.5 L 303 164.5 L 317 133.5 L 323 125.5 L 324 117.5 L 326.5 113 L 335 105.5 L 343 88.5 L 343 85.5 L 351 64.5 L 352 56.5 L 355 50.5 L 355 45.5 L 359 33.5 L 361 18.5 L 363 14.5 L 364 3.5 L 360.5 1 L 324.5 16 L 299.5 30 L 293.5 32 L 275.5 43 L 258 56.5 Q 258.8 58.8 256.5 58 L 251 66.5 L 246 79 Q 242 80.4 244 73.5 Q 243.5 70.5 239.5 71 L 235 74.5 L 232.5 79 L 218 92.5 L 216.5 95 L 214 96.5 L 207 106 L 205 106 L 205 108 Q 202.3 106.9 203 109.5 L 187 129.5 L 181 144 L 176.5 141 L 167 154.5 L 159 173.5 L 157 175.5 Q 159.5 177 156 178.5 L 155 180.5 Q 157.5 182 154 183.5 L 150 203.5 L 148 205.5 L 147 210.5 L 147 222.5 L 146 224.5 L 147 226.5 Q 142.5 232.1 134 233 L 133 239.5 L 144 259.5 L 144 261.5 L 155 288.5 L 157 298.5 Q 153.6 303.5 148 305 L 145 311.5 L 145 313.5 L 144 319.5 L 145 320.5 L 145 327 L 142 328.5 L 141 333 L 138.5 333 L 134 336.5 L 131 343 L 121 349.5 Q 121.8 352.1 118.5 351 L 116 352 L 112.5 359 L 101.5 360 L 98 363.5 L 97 368 L 92.5 367 L 89.5 372 L 68 374 L 66 380.5 L 66 400.5 L 67 401.5 L 67 416.5 L 69.5 423 L 75.5 425 L 86.5 433 L 106.5 437 L 108.5 437 L 117.5 437 L 131 440.5 L 0 441 L 0 0 Z " /><path fill="rgb(0,0,0)" stroke="rgb(0,0,0)" stroke-width="1" opacity="0" d="M 141.5 439 L 150 440.5 L 137.5 441 L 137.5 440 L 141.5 439 Z " /><path fill="rgb(120,116,149)" stroke="rgb(120,116,149)" stroke-width="1" opacity="0.9607843137254902" d="M 359.5 4 L 362 5.5 L 356 30.5 L 354 44.5 L 349 62.5 L 341 87.5 L 332 107 Q 313.6 119.9 291.5 130 L 290 129.5 L 289.5 131 L 287 130 Q 288.1 127.3 285.5 128 L 284 128.5 Q 286.3 127.3 283.5 126 L 281 127 L 280 121 L 276.5 121 L 271.5 117 L 269 117 Q 270.5 113.3 267.5 114 L 265 115.5 Q 286.9 82.4 314 54.5 L 312.5 54 L 267.5 96 L 266 96 L 266 97.5 L 255.5 108 L 252 107 L 253 104.5 Q 246.9 103.6 244 99.5 L 251 73.5 L 256 62.5 L 260.5 57 Q 278.5 42 300.5 31 Q 328.3 15.8 359.5 4 Z M 277 119 L 277 120 L 280 120 L 277 119 Z M 286 126 L 287 127 L 288 128 Q 289 125 286 126 Z " /><path fill="rgb(120,116,149)" stroke="rgb(120,116,149)" stroke-width="1" opacity="0.9607843137254902" d="M 362.5 10 L 363 12.5 L 362 12.5 L 362.5 10 Z " /><path fill="rgb(120,116,149)" stroke="rgb(120,116,149)" stroke-width="1" opacity="0.9607843137254902" d="M 360.5 19 L 361 21.5 L 360 21.5 L 360.5 19 Z " /><path fill="rgb(120,116,149)" stroke="rgb(120,116,149)" stroke-width="1" opacity="0.9607843137254902" d="M 359.5 24 L 360 26.5 L 359 26.5 L 359.5 24 Z " /><path fill="rgb(120,116,149)" stroke="rgb(120,116,149)" stroke-width="1" opacity="0.9607843137254902" d="M 358.5 29 L 359 31.5 L 358 31.5 L 358.5 29 Z " /><path fill="rgb(120,116,149)" stroke="rgb(120,116,149)" stroke-width="1" opacity="0.9607843137254902" d="M 351.5 57 L 352 59.5 L 351 59.5 L 351.5 57 Z " /><path fill="rgb(120,116,149)" stroke="rgb(120,116,149)" stroke-width="1" opacity="0.9607843137254902" d="M 256.5 58 L 255.5 60 L 256.5 58 Z " /><path fill="rgb(120,116,149)" stroke="rgb(120,116,149)" stroke-width="1" opacity="0.9607843137254902" d="M 239.5 74 L 240 95.5 L 241 100 L 232 96 L 231.5 94 L 227 96 L 227 93 Q 224.3 94.1 225 91.5 L 224 91.5 L 222.5 94 L 220.5 95 L 236 78.5 L 239.5 74 Z " /><path fill="rgb(120,116,149)" stroke="rgb(120,116,149)" stroke-width="1" opacity="0.9607843137254902" d="M 243.5 74 L 244 78.5 L 243 78.5 L 243.5 74 Z " /><path fill="rgb(120,116,149)" stroke="rgb(120,116,149)" stroke-width="1" opacity="0.9607843137254902" d="M 231.5 79 L 228.5 83 L 231.5 79 Z " /><path fill="rgb(120,116,149)" stroke="rgb(120,116,149)" stroke-width="1" opacity="0.9607843137254902" d="M 225.5 85 L 224.5 87 L 225.5 85 Z " /><path fill="rgb(120,116,149)" stroke="rgb(120,116,149)" stroke-width="1" opacity="0.9607843137254902" d="M 215.5 95 L 214.5 97 L 215.5 95 Z " /><path fill="rgb(120,116,149)" stroke="rgb(120,116,149)" stroke-width="1" opacity="0.9607843137254902" d="M 254.5 109 L 253.5 111 L 254.5 109 Z " /><path fill="rgb(120,116,149)" stroke="rgb(120,116,149)" stroke-width="1" opacity="0.9607843137254902" d="M 198.5 114 L 197.5 116 L 198.5 114 Z " /><path fill="rgb(120,116,149)" stroke="rgb(120,116,149)" stroke-width="1" opacity="0.9607843137254902" d="M 323.5 118 L 324 120.5 L 323 120.5 L 323.5 118 Z " /><path fill="rgb(120,116,149)" stroke="rgb(120,116,149)" stroke-width="1" opacity="0.9607843137254902" d="M 277.5 122 L 276.5 124 L 277.5 122 Z " /><path fill="rgb(120,116,149)" stroke="rgb(120,116,149)" stroke-width="1" opacity="0.9607843137254902" d="M 318.5 125 L 318 126.5 L 307 149 Q 303.2 149.8 302 146.5 L 302.5 145 L 299.5 146 L 298.5 143 Q 295.2 144.1 296 141.5 L 293.5 138 L 291.5 139 L 291.5 138 L 294 136.5 L 292.5 134 Q 308.4 132.4 318.5 125 Z " /><path fill="rgb(120,116,149)" stroke="rgb(120,116,149)" stroke-width="1" opacity="0.9607843137254902" d="M 162.5 165 L 161.5 167 L 162.5 165 Z " /><path fill="rgb(120,116,149)" stroke="rgb(120,116,149)" stroke-width="1" opacity="0.9607843137254902" d="M 148.5 205 L 149 207.5 L 148 207.5 L 148.5 205 Z " /><path fill="rgb(120,116,149)" stroke="rgb(120,116,149)" stroke-width="1" opacity="0.9607843137254902" d="M 273.5 225 L 272.5 227 L 273.5 225 Z " /><path fill="rgb(120,116,149)" stroke="rgb(120,116,149)" stroke-width="1" opacity="0.9607843137254902" d="M 270.5 229 L 269.5 231 L 270.5 229 Z " /><path fill="rgb(120,116,149)" stroke="rgb(120,116,149)" stroke-width="1" opacity="0.9607843137254902" d="M 266.5 234 L 265.5 236 L 266.5 234 Z " /><path fill="rgb(120,116,149)" stroke="rgb(120,116,149)" stroke-width="1" opacity="0.9607843137254902" d="M 262.5 238 L 260.5 241 L 262.5 238 Z " /><path fill="rgb(120,116,149)" stroke="rgb(120,116,149)" stroke-width="1" opacity="0.9607843137254902" d="M 254.5 246 L 253.5 248 L 254.5 246 Z " /><path fill="rgb(120,116,149)" stroke="rgb(120,116,149)" stroke-width="1" opacity="0.9607843137254902" d="M 137.5 247 Q 140.5 247.5 140 251.5 L 139 251.5 L 137.5 247 Z " /><path fill="rgb(120,116,149)" stroke="rgb(120,116,149)" stroke-width="1" opacity="0.9607843137254902" d="M 141.5 255 L 144 258.5 L 142 257.5 L 141.5 255 Z " /><path fill="rgb(120,116,149)" stroke="rgb(120,116,149)" stroke-width="1" opacity="0.9607843137254902" d="M 233.5 262 L 231.5 265 L 233.5 262 Z " /><path fill="rgb(120,116,149)" stroke="rgb(120,116,149)" stroke-width="1" opacity="0.9607843137254902" d="M 227.5 266 L 226.5 268 L 227.5 266 Z " /><path fill="rgb(120,116,149)" stroke="rgb(120,116,149)" stroke-width="1" opacity="0.9607843137254902" d="M 191.5 308 L 192 318.5 L 191 318.5 L 191.5 308 Z " /><path fill="rgb(120,116,149)" stroke="rgb(120,116,149)" stroke-width="1" opacity="0.9607843137254902" d="M 207.5 323 L 210 323.5 L 207.5 324 L 207.5 323 Z " /><path fill="rgb(120,116,149)" stroke="rgb(120,116,149)" stroke-width="1" opacity="0.9607843137254902" d="M 229.5 325 L 240 325.5 L 229.5 326 L 229.5 325 Z " /><path fill="rgb(120,116,149)" stroke="rgb(120,116,149)" stroke-width="1" opacity="0.9607843137254902" d="M 268.5 343 L 269 356.5 L 268 356.5 L 268.5 343 Z " /><path fill="rgb(120,116,149)" stroke="rgb(120,116,149)" stroke-width="1" opacity="0.9607843137254902" d="M 248.5 384 L 246.5 387 L 248.5 384 Z " /><path fill="rgb(120,116,149)" stroke="rgb(120,116,149)" stroke-width="1" opacity="0.9607843137254902" d="M 81.5 429 L 82.5 431 L 81.5 429 Z " /><path fill="rgb(120,116,149)" stroke="rgb(120,116,149)" stroke-width="1" opacity="0.9607843137254902" d="M 108.5 436 L 115 436.5 L 108.5 437 L 108.5 436 Z " /><path fill="rgb(178,113,141)" stroke="rgb(178,113,141)" stroke-width="1" opacity="0.9803921568627451" d="M 359.5 17 L 360.5 19 L 359.5 17 Z " /><path fill="rgb(178,113,141)" stroke="rgb(178,113,141)" stroke-width="1" opacity="0.9803921568627451" d="M 356.5 37 L 357 39.5 L 356 39.5 L 356.5 37 Z " /><path fill="rgb(178,113,141)" stroke="rgb(178,113,141)" stroke-width="1" opacity="0.9803921568627451" d="M 351.5 52 L 352.5 54 L 351.5 52 Z " /><path fill="rgb(178,113,141)" stroke="rgb(178,113,141)" stroke-width="1" opacity="0.9803921568627451" d="M 312.5 54 L 314 54.5 L 309.5 58 L 312.5 54 Z " /><path fill="rgb(178,113,141)" stroke="rgb(178,113,141)" stroke-width="1" opacity="0.9803921568627451" d="M 262.5 55 L 261.5 57 L 262.5 55 Z " /><path fill="rgb(178,113,141)" stroke="rgb(178,113,141)" stroke-width="1" opacity="0.9803921568627451" d="M 352.5 55 L 351.5 57 L 352.5 55 Z " /><path fill="rgb(178,113,141)" stroke="rgb(178,113,141)" stroke-width="1" opacity="0.9803921568627451" d="M 349.5 59 L 350.5 61 L 349.5 59 Z " /><path fill="rgb(178,113,141)" stroke="rgb(178,113,141)" stroke-width="1" opacity="0.9803921568627451" d="M 304.5 61 L 300.5 66 L 304.5 61 Z " /><path fill="rgb(178,113,141)" stroke="rgb(178,113,141)" stroke-width="1" opacity="0.9803921568627451" d="M 306.5 62 L 303.5 66 L 306.5 62 Z " /><path fill="rgb(178,113,141)" stroke="rgb(178,113,141)" stroke-width="1" opacity="0.9803921568627451" d="M 348.5 67 L 349 69.5 Q 347.5 72.5 346 69.5 L 348 69.5 L 348.5 67 Z " /><path fill="rgb(178,113,141)" stroke="rgb(178,113,141)" stroke-width="1" opacity="0.9803921568627451" d="M 296.5 68 L 291.5 74 L 296.5 68 Z " /><path fill="rgb(178,113,141)" stroke="rgb(178,113,141)" stroke-width="1" opacity="0.9803921568627451" d="M 300.5 69 L 298.5 72 L 300.5 69 Z " /><path fill="rgb(178,113,141)" stroke="rgb(178,113,141)" stroke-width="1" opacity="0.9803921568627451" d="M 295.5 75 L 292.5 79 L 295.5 75 Z " /><path fill="rgb(178,113,141)" stroke="rgb(178,113,141)" stroke-width="1" opacity="0.9803921568627451" d="M 235.5 78 L 224 90.5 L 225 91.5 Q 224.3 94.1 227 93 L 226 90.5 L 228 91.5 L 227 96 L 231.5 94 L 232 96 L 240.5 100 L 242 99.5 L 242.5 102 L 243.5 98 L 246.5 102 L 253 104.5 L 252 107 L 255.5 108 Q 260.3 105.5 258.5 103 L 259.5 104 L 266 97.5 L 266.5 96 L 267 97.5 Q 226 138.5 196.5 191 L 190 189.5 L 191 187 L 185 188 L 185 186 L 181 185.5 L 181 161.5 L 182 158.5 Q 182.8 139.3 191 127.5 Q 203.5 109.5 219.5 95 L 221 94.5 L 220 93.5 L 235.5 78 Z M 224 91 L 222 94 L 224 93 L 224 91 Z M 183 184 L 183 185 L 186 185 L 183 184 Z " /><path fill="rgb(178,113,141)" stroke="rgb(178,113,141)" stroke-width="1" opacity="0.9803921568627451" d="M 282.5 81 L 270.5 94 L 282.5 81 Z " /><path fill="rgb(178,113,141)" stroke="rgb(178,113,141)" stroke-width="1" opacity="0.9803921568627451" d="M 290.5 81 L 287.5 85 L 290.5 81 Z " /><path fill="rgb(178,113,141)" stroke="rgb(178,113,141)" stroke-width="1" opacity="0.9803921568627451" d="M 285.5 87 L 283.5 90 L 285.5 87 Z " /><path fill="rgb(178,113,141)" stroke="rgb(178,113,141)" stroke-width="1" opacity="0.9803921568627451" d="M 221.5 89 L 218.5 93 L 221.5 89 Z " /><path fill="rgb(178,113,141)" stroke="rgb(178,113,141)" stroke-width="1" opacity="0.9803921568627451" d="M 240.5 89 L 241 95.5 L 240 95.5 L 240.5 89 Z " /><path fill="rgb(178,113,141)" stroke="rgb(178,113,141)" stroke-width="1" opacity="0.9803921568627451" d="M 281.5 92 L 279.5 95 L 281.5 92 Z " /><path fill="rgb(178,113,141)" stroke="rgb(178,113,141)" stroke-width="1" opacity="0.9803921568627451" d="M 340.5 92 L 340 93.5 L 339.5 95 L 339 93.5 L 340.5 92 Z " /><path fill="rgb(178,113,141)" stroke="rgb(178,113,141)" stroke-width="1" opacity="0.9803921568627451" d="M 245.5 97 L 246.5 99 L 245.5 97 Z " /><path fill="rgb(178,113,141)" stroke="rgb(178,113,141)" stroke-width="1" opacity="0.9803921568627451" d="M 277.5 97 L 275.5 100 L 277.5 97 Z " /><path fill="rgb(178,113,141)" stroke="rgb(178,113,141)" stroke-width="1" opacity="0.9803921568627451" d="M 274.5 101 L 273 103.5 L 266 112.5 L 266 114.5 L 267.5 114 Q 270.5 113.2 269 117 L 271.5 117 Q 273.3 120.1 275 118.5 L 274.5 120 L 279.5 119 L 279.5 120 L 276 120.5 L 280 121 L 281 127 L 283.5 126 L 285.5 126 Q 288.8 124.9 288 127.5 L 287 130 Q 290 129 289 132 L 283 134.5 L 286.5 135 L 291.5 134 L 294 136.5 L 294 138.5 L 296 143 L 300 144.5 L 299.5 146 L 302.5 145 Q 300.8 147 304.5 149 Q 307.8 150.1 307 147.5 L 308 147.5 L 309 149.5 L 307 149.5 L 306.5 151 L 305 150.5 L 306 152.5 L 304 153.5 L 304.5 155 L 303 155.5 L 303.5 157 L 302 157.5 L 302 159.5 L 287 188.5 L 269.5 207 L 251.5 219 L 239.5 223 L 235.5 221 L 233.5 222 L 232.5 220 L 235 221 L 234 216 L 226 215 Q 227.1 212.3 224.5 213 Q 223.3 215.3 222 212.5 L 219 205 Q 215.2 205.8 214 202.5 L 216.5 199 L 220 196.5 L 218 193.5 L 234 161.5 L 251 132.5 L 274.5 101 Z " /><path fill="rgb(178,113,141)" stroke="rgb(178,113,141)" stroke-width="1" opacity="0.9803921568627451" d="M 333.5 103 L 334.5 105 L 333.5 103 Z " /><path fill="rgb(178,113,141)" stroke="rgb(178,113,141)" stroke-width="1" opacity="0.9803921568627451" d="M 330.5 107 L 333 107.5 Q 330.9 110.8 330.5 107 Z " /><path fill="rgb(178,113,141)" stroke="rgb(178,113,141)" stroke-width="1" opacity="0.9803921568627451" d="M 260.5 110 L 261 111.5 L 236 145.5 L 210.5 190 L 207 188.5 L 229 151.5 L 249 123.5 L 260.5 110 Z " /><path fill="rgb(178,113,141)" stroke="rgb(178,113,141)" stroke-width="1" opacity="0.9803921568627451" d="M 316.5 116 L 315.5 118 L 316.5 116 Z " /><path fill="rgb(178,113,141)" stroke="rgb(178,113,141)" stroke-width="1" opacity="0.9803921568627451" d="M 311.5 119 L 310.5 121 L 311.5 119 Z " /><path fill="rgb(178,113,141)" stroke="rgb(178,113,141)" stroke-width="1" opacity="0.9803921568627451" d="M 317.5 125 L 318.5 127 L 317.5 125 Z " /><path fill="rgb(178,113,141)" stroke="rgb(178,113,141)" stroke-width="1" opacity="0.9803921568627451" d="M 315.5 126 L 314.5 128 L 313 127.5 L 315.5 126 Z " /><path fill="rgb(178,113,141)" stroke="rgb(178,113,141)" stroke-width="1" opacity="0.9803921568627451" d="M 321.5 126 L 319.5 129 L 321.5 126 Z " /><path fill="rgb(178,113,141)" stroke="rgb(178,113,141)" stroke-width="1" opacity="0.9803921568627451" d="M 310.5 128 L 312 128.5 L 308.5 130 L 308.5 129 L 310.5 128 Z " /><path fill="rgb(178,113,141)" stroke="rgb(178,113,141)" stroke-width="1" opacity="0.9803921568627451" d="M 298.5 132 L 301 132.5 L 298.5 133 L 298.5 132 Z " /><path fill="rgb(178,113,141)" stroke="rgb(178,113,141)" stroke-width="1" opacity="0.9803921568627451" d="M 293.5 133 L 297 133.5 L 293.5 134 L 293.5 133 Z " /><path fill="rgb(178,113,141)" stroke="rgb(178,113,141)" stroke-width="1" opacity="0.9803921568627451" d="M 171.5 154 L 172 164.5 L 170.5 167 L 168 166 L 168 168 Q 170.7 166.9 170 169.5 L 169 172 L 163.5 174 L 163 172.5 L 165.5 166 L 167 166.5 L 166 163.5 L 171.5 154 Z M 166 168 Q 165 171 168 170 Q 169 167 166 168 Z " /><path fill="rgb(178,113,141)" stroke="rgb(178,113,141)" stroke-width="1" opacity="0.9803921568627451" d="M 171.5 169 L 172 174.5 L 171 174.5 L 170 172.5 L 171.5 169 Z " /><path fill="rgb(178,113,141)" stroke="rgb(178,113,141)" stroke-width="1" opacity="0.9803921568627451" d="M 208.5 191 Q 210.8 190.3 210 192.5 L 206 195.5 Q 208.3 196.8 205.5 198 L 204.5 195 L 203 195.5 L 205.5 192 L 208.5 191 Z " /><path fill="rgb(178,113,141)" stroke="rgb(178,113,141)" stroke-width="1" opacity="0.9803921568627451" d="M 199 209 L 201 209.5 L 199 210.5 L 199 209 Z " /><path fill="rgb(178,113,141)" stroke="rgb(178,113,141)" stroke-width="1" opacity="0.9803921568627451" d="M 277.5 213 L 276 215.5 L 263 235 L 259.5 236 L 255.5 235 L 252.5 236 L 248 233 Q 246.9 230.3 249.5 231 L 251 231.5 L 253.5 225 Q 267.6 221.1 277.5 213 Z M 252 230 Q 251 233 254 232 Q 255 229 252 230 Z " /><path fill="rgb(178,113,141)" stroke="rgb(178,113,141)" stroke-width="1" opacity="0.9803921568627451" d="M 281.5 213 L 278.5 217 L 281.5 213 Z " /><path fill="rgb(178,113,141)" stroke="rgb(178,113,141)" stroke-width="1" opacity="0.9803921568627451" d="M 268.5 231 L 266.5 234 L 268.5 231 Z " /><path fill="rgb(178,113,141)" stroke="rgb(178,113,141)" stroke-width="1" opacity="0.9803921568627451" d="M 135.5 244 L 137.5 247 L 135.5 244 Z " /><path fill="rgb(178,113,141)" stroke="rgb(178,113,141)" stroke-width="1" opacity="0.9803921568627451" d="M 76.5 425 L 77.5 427 L 76.5 425 Z " /><path fill="rgb(244,122,129)" stroke="rgb(244,122,129)" stroke-width="1" opacity="0.9921568627450981" d="M 163.5 170 L 164 171.5 L 163 173.5 L 164.5 173 L 168.5 172 L 168.5 174 L 172 175.5 L 177 190.5 L 181.5 198 L 183 195.5 L 182 194.5 L 182 186 Q 186.1 184.7 185 188 L 188.5 188 L 191 187 L 190 189.5 L 194 191.5 L 192 196.5 L 193 198.5 L 188 210.5 L 185.5 213 L 183.5 212 L 181 212.5 L 180 216.5 L 183 221.5 L 180 229 L 178 229.5 L 179 231.5 L 177 234.5 L 177 237.5 L 175 240.5 L 164.5 275 Q 159.5 269 158 259.5 L 159 255.5 L 156 254.5 L 151 236.5 L 150 214.5 L 153 197.5 L 156.5 190 Q 159.1 190.8 158 187.5 L 157 185.5 L 163.5 170 Z " /><path fill="rgb(244,122,129)" stroke="rgb(244,122,129)" stroke-width="1" opacity="0.9921568627450981" d="M 214.5 203 Q 215.6 205.8 219 205 L 223.5 214 L 226 213 Q 224.8 216 228.5 215 L 234 216 L 235 221 L 241 223.5 L 229 229.5 Q 230 232 234.5 231 L 243.5 229 L 248 231 Q 246.9 233.7 249.5 233 L 257 239.5 L 238.5 256 L 192.5 283 L 185.5 289 L 185 287.5 L 190 265.5 L 200.5 236 L 201 238 L 204 236.5 L 203 227.5 L 214.5 203 Z " /><path fill="rgb(244,122,129)" stroke="rgb(244,122,129)" stroke-width="1" opacity="0.9921568627450981" d="M 197 207 L 202 209.5 L 195.5 226 L 192 225 L 191 220.5 L 197 207 Z M 199 209 L 199 211 L 201 210 L 199 209 Z " /><path fill="rgb(244,122,129)" stroke="rgb(244,122,129)" stroke-width="1" opacity="0.9921568627450981" d="M 188.5 236 L 190.5 237 L 192 236.5 L 189.5 242 L 189 240.5 L 190 237 L 188.5 236 Z " /><path fill="rgb(244,122,129)" stroke="rgb(244,122,129)" stroke-width="1" opacity="0.9921568627450981" d="M 183.5 241 L 184 243 L 186 243 Q 184.7 247.1 188 246 L 188 249.5 L 181 270.5 L 175 299.5 L 172.5 304 L 171.5 303 L 165 303 L 173 270.5 L 183.5 241 Z " /><path fill="rgb(244,122,129)" stroke="rgb(244,122,129)" stroke-width="1" opacity="0.9921568627450981" d="M 144.5 253 Q 155.5 268 162 287.5 L 159.5 294 L 146 260.5 L 144.5 253 Z " /><path fill="rgb(244,122,129)" stroke="rgb(244,122,129)" stroke-width="1" opacity="0.9921568627450981" d="M 227.5 280 L 230 280.5 L 227.5 281 L 227.5 280 Z " /><path fill="rgb(244,122,129)" stroke="rgb(244,122,129)" stroke-width="1" opacity="0.9921568627450981" d="M 222.5 281 L 226 281.5 L 202.5 290 L 181.5 303 L 181 301.5 L 184.5 297 Q 199.8 285.3 222.5 281 Z " /><path fill="rgb(244,122,129)" stroke="rgb(244,122,129)" stroke-width="1" opacity="0.9921568627450981" d="M 149.5 310 L 186.5 310 L 188 311.5 L 188 319.5 L 186.5 321 L 160.5 321 L 159.5 320 L 147 320 L 148 311.5 L 149.5 310 Z " /><path fill="rgb(244,122,129)" stroke="rgb(244,122,129)" stroke-width="1" opacity="0.9921568627450981" d="M 147 327 L 183 328 L 188 352.5 Q 185.5 350.7 183 355.5 L 185 356 L 184 358.5 L 187 364.5 L 183.5 369 Q 181.5 366.2 177 367 L 176.5 365 L 172.5 366 L 170 364.5 L 173 358.5 L 170 352.5 L 178 349.5 L 177.5 346 L 180 347 L 180 343 L 178.5 343 L 174.5 342 L 172.5 343 L 172.5 342 L 175 340.5 L 172.5 339 L 167 341.5 L 167.5 343 Q 164.5 342.1 166 346.5 L 167 349 L 162.5 348 Q 156.8 349.3 154 353.5 L 153.5 355 L 151 349.5 L 152 347.5 L 150 341 L 144 338 L 147 327 Z " /><path fill="rgb(244,122,129)" stroke="rgb(244,122,129)" stroke-width="1" opacity="0.9921568627450981" d="M 260.5 339 L 264 341 L 265 345.5 L 262.5 346 L 260 344.5 L 260.5 339 Z " /><path fill="rgb(244,122,129)" stroke="rgb(244,122,129)" stroke-width="1" opacity="0.9921568627450981" d="M 218.5 341 L 227.5 342 L 234 345.5 L 228.5 346 Q 225 342.5 218.5 342 L 218.5 341 Z " /><path fill="rgb(244,122,129)" stroke="rgb(244,122,129)" stroke-width="1" opacity="0.9921568627450981" d="M 237.5 348 Q 241.7 350.8 240 359.5 L 233.5 369 L 230 361.5 L 233 353 L 236 351.5 L 237.5 348 Z " /><path fill="rgb(244,122,129)" stroke="rgb(244,122,129)" stroke-width="1" opacity="0.9921568627450981" d="M 205.5 353 L 207 356 Q 203.5 357.1 205.5 353 Z " /><path fill="rgb(244,122,129)" stroke="rgb(244,122,129)" stroke-width="1" opacity="0.9921568627450981" d="M 120.5 356 L 121 358 L 119 357.5 L 120.5 356 Z " /><path fill="rgb(244,122,129)" stroke="rgb(244,122,129)" stroke-width="1" opacity="0.9921568627450981" d="M 140.5 358 L 142 358.5 L 141.5 363 L 139.5 364 L 137 359 L 140.5 358 Z " /><path fill="rgb(244,122,129)" stroke="rgb(244,122,129)" stroke-width="1" opacity="0.9921568627450981" d="M 103.5 364 Q 106.3 365.3 104 366.5 L 103.5 368 L 102 365.5 L 103.5 364 Z " /><path fill="rgb(244,122,129)" stroke="rgb(244,122,129)" stroke-width="1" opacity="0.9921568627450981" d="M 257.5 364 L 259 364.5 L 256.5 366 L 257.5 364 Z " /><path fill="rgb(244,122,129)" stroke="rgb(244,122,129)" stroke-width="1" opacity="0.9921568627450981" d="M 213.5 380 L 216 381.5 L 214.5 384 L 213.5 380 Z " /><path fill="rgb(244,122,129)" stroke="rgb(244,122,129)" stroke-width="1" opacity="0.9921568627450981" d="M 245.5 380 L 246 382 L 244 381.5 L 245.5 380 Z " /><path fill="rgb(244,122,129)" stroke="rgb(244,122,129)" stroke-width="1" opacity="0.9921568627450981" d="M 211.5 381 L 212.5 383 L 210 382.5 L 211.5 381 Z " /><path fill="rgb(244,122,129)" stroke="rgb(244,122,129)" stroke-width="1" opacity="0.9921568627450981" d="M 83.5 382 L 84 384 L 82 383.5 L 83.5 382 Z " /><path fill="rgb(244,122,129)" stroke="rgb(244,122,129)" stroke-width="1" opacity="0.9921568627450981" d="M 208.5 383 L 211 385.5 L 210.5 388 L 205 385.5 L 208.5 383 Z " /><path fill="rgb(244,122,129)" stroke="rgb(244,122,129)" stroke-width="1" opacity="0.9921568627450981" d="M 212.5 384 L 213 386.5 L 212 386.5 L 212.5 384 Z " /><path fill="rgb(244,122,129)" stroke="rgb(244,122,129)" stroke-width="1" opacity="0.9921568627450981" d="M 109.5 385 L 107 388.5 Q 103.4 392.4 103.5 400 L 102.5 396 L 101 396.5 L 109.5 385 Z " /><path fill="rgb(244,122,129)" stroke="rgb(244,122,129)" stroke-width="1" opacity="0.9921568627450981" d="M 126.5 387 L 127 388.5 L 123.5 391 L 123.5 390 L 126 388.5 L 126.5 387 Z " /><path fill="rgb(244,122,129)" stroke="rgb(244,122,129)" stroke-width="1" opacity="0.9921568627450981" d="M 234.5 392 L 237 393.5 Q 234.5 398.5 232 393.5 L 234.5 392 Z " /><path fill="rgb(232,136,145)" stroke="rgb(232,136,145)" stroke-width="1" opacity="0.984313725490196" d="M 308.5 58 L 310 58.5 L 307.5 60 L 308.5 58 Z " /><path fill="rgb(232,136,145)" stroke="rgb(232,136,145)" stroke-width="1" opacity="0.984313725490196" d="M 302.5 66 L 301.5 68 L 302.5 66 Z " /><path fill="rgb(232,136,145)" stroke="rgb(232,136,145)" stroke-width="1" opacity="0.984313725490196" d="M 297.5 72 L 296.5 74 L 297.5 72 Z " /><path fill="rgb(232,136,145)" stroke="rgb(232,136,145)" stroke-width="1" opacity="0.984313725490196" d="M 290.5 74 L 282.5 83 L 290.5 74 Z " /><path fill="rgb(232,136,145)" stroke="rgb(232,136,145)" stroke-width="1" opacity="0.984313725490196" d="M 291.5 79 L 290.5 81 L 291.5 79 Z " /><path fill="rgb(232,136,145)" stroke="rgb(232,136,145)" stroke-width="1" opacity="0.984313725490196" d="M 286.5 85 L 285.5 87 L 286.5 85 Z " /><path fill="rgb(232,136,145)" stroke="rgb(232,136,145)" stroke-width="1" opacity="0.984313725490196" d="M 282.5 90 L 280.5 93 L 282.5 90 Z " /><path fill="rgb(232,136,145)" stroke="rgb(232,136,145)" stroke-width="1" opacity="0.984313725490196" d="M 278.5 95 L 277.5 97 L 278.5 95 Z " /><path fill="rgb(232,136,145)" stroke="rgb(232,136,145)" stroke-width="1" opacity="0.984313725490196" d="M 271.5 104 L 270.5 106 L 271.5 104 Z " /><path fill="rgb(232,136,145)" stroke="rgb(232,136,145)" stroke-width="1" opacity="0.984313725490196" d="M 259.5 105 L 256.5 109 L 259.5 105 Z " /><path fill="rgb(232,136,145)" stroke="rgb(232,136,145)" stroke-width="1" opacity="0.984313725490196" d="M 262.5 108 L 262 109.5 L 261.5 111 L 261 109.5 L 262.5 108 Z " /><path fill="rgb(232,136,145)" stroke="rgb(232,136,145)" stroke-width="1" opacity="0.984313725490196" d="M 253.5 112 L 250.5 116 L 253.5 112 Z " /><path fill="rgb(232,136,145)" stroke="rgb(232,136,145)" stroke-width="1" opacity="0.984313725490196" d="M 260.5 112 L 259.5 114 L 260.5 112 Z " /><path fill="rgb(232,136,145)" stroke="rgb(232,136,145)" stroke-width="1" opacity="0.984313725490196" d="M 257.5 113 L 254.5 117 L 257.5 113 Z " /><path fill="rgb(232,136,145)" stroke="rgb(232,136,145)" stroke-width="1" opacity="0.984313725490196" d="M 264.5 113 L 262.5 116 L 264.5 113 Z " /><path fill="rgb(232,136,145)" stroke="rgb(232,136,145)" stroke-width="1" opacity="0.984313725490196" d="M 258.5 115 L 257.5 117 L 258.5 115 Z " /><path fill="rgb(232,136,145)" stroke="rgb(232,136,145)" stroke-width="1" opacity="0.984313725490196" d="M 261.5 117 L 259.5 120 L 261.5 117 Z " /><path fill="rgb(232,136,145)" stroke="rgb(232,136,145)" stroke-width="1" opacity="0.984313725490196" d="M 247.5 119 L 244.5 123 L 247.5 119 Z " /><path fill="rgb(232,136,145)" stroke="rgb(232,136,145)" stroke-width="1" opacity="0.984313725490196" d="M 252.5 119 L 250.5 122 L 252.5 119 Z " /><path fill="rgb(232,136,145)" stroke="rgb(232,136,145)" stroke-width="1" opacity="0.984313725490196" d="M 255.5 119 L 254.5 121 L 255.5 119 Z " /><path fill="rgb(232,136,145)" stroke="rgb(232,136,145)" stroke-width="1" opacity="0.984313725490196" d="M 258.5 121 L 257.5 123 L 258.5 121 Z " /><path fill="rgb(232,136,145)" stroke="rgb(232,136,145)" stroke-width="1" opacity="0.984313725490196" d="M 252.5 123 L 251.5 125 L 252.5 123 Z " /><path fill="rgb(232,136,145)" stroke="rgb(232,136,145)" stroke-width="1" opacity="0.984313725490196" d="M 248.5 124 L 247.5 126 L 248.5 124 Z " /><path fill="rgb(232,136,145)" stroke="rgb(232,136,145)" stroke-width="1" opacity="0.984313725490196" d="M 256.5 124 L 255.5 126 L 256.5 124 Z " /><path fill="rgb(232,136,145)" stroke="rgb(232,136,145)" stroke-width="1" opacity="0.984313725490196" d="M 241.5 126 L 239.5 129 L 241.5 126 Z " /><path fill="rgb(232,136,145)" stroke="rgb(232,136,145)" stroke-width="1" opacity="0.984313725490196" d="M 250.5 126 L 248.5 129 L 250.5 126 Z " /><path fill="rgb(232,136,145)" stroke="rgb(232,136,145)" stroke-width="1" opacity="0.984313725490196" d="M 246.5 127 L 245 129.5 L 237.5 140 L 239 137.5 L 246.5 127 Z " /><path fill="rgb(232,136,145)" stroke="rgb(232,136,145)" stroke-width="1" opacity="0.984313725490196" d="M 254.5 127 L 253.5 129 L 254.5 127 Z " /><path fill="rgb(232,136,145)" stroke="rgb(232,136,145)" stroke-width="1" opacity="0.984313725490196" d="M 238.5 130 L 235.5 134 L 238.5 130 Z " /><path fill="rgb(232,136,145)" stroke="rgb(232,136,145)" stroke-width="1" opacity="0.984313725490196" d="M 247.5 130 L 245.5 133 L 247.5 130 Z " /><path fill="rgb(232,136,145)" stroke="rgb(232,136,145)" stroke-width="1" opacity="0.984313725490196" d="M 252.5 130 L 251.5 132 L 252.5 130 Z " /><path fill="rgb(232,136,145)" stroke="rgb(232,136,145)" stroke-width="1" opacity="0.984313725490196" d="M 285.5 133 L 286.5 135 L 283 134.5 L 285.5 133 Z " /><path fill="rgb(232,136,145)" stroke="rgb(232,136,145)" stroke-width="1" opacity="0.984313725490196" d="M 244.5 134 L 242.5 137 L 244.5 134 Z " /><path fill="rgb(232,136,145)" stroke="rgb(232,136,145)" stroke-width="1" opacity="0.984313725490196" d="M 234.5 135 L 232.5 138 L 234.5 135 Z " /><path fill="rgb(232,136,145)" stroke="rgb(232,136,145)" stroke-width="1" opacity="0.984313725490196" d="M 249.5 135 L 249 136.5 L 247.5 139 L 248 137.5 L 249.5 135 Z " /><path fill="rgb(232,136,145)" stroke="rgb(232,136,145)" stroke-width="1" opacity="0.984313725490196" d="M 241.5 138 L 241 139.5 L 234.5 150 L 235 148.5 L 241.5 138 Z " /><path fill="rgb(232,136,145)" stroke="rgb(232,136,145)" stroke-width="1" opacity="0.984313725490196" d="M 231.5 139 L 229 142.5 Q 208.8 169.3 193 200.5 L 178 235.5 L 166 275.5 L 164.5 277 L 161 270.5 L 162 270.5 L 164.5 275 L 179 230.5 L 178.5 229 Q 180.8 229.8 180 227.5 L 183 220.5 L 180 214.5 L 182.5 211 L 185.5 213 L 188 210.5 L 193 197.5 L 192 195.5 L 194.5 191 L 198 189.5 Q 212 161.5 231.5 139 Z " /><path fill="rgb(232,136,145)" stroke="rgb(232,136,145)" stroke-width="1" opacity="0.984313725490196" d="M 246.5 140 L 245.5 142 L 246.5 140 Z " /><path fill="rgb(232,136,145)" stroke="rgb(232,136,145)" stroke-width="1" opacity="0.984313725490196" d="M 236.5 141 L 235 143.5 Q 219.4 164.4 207 188.5 L 210.5 190 L 233.5 151 L 233 152.5 L 214 186.5 L 197 224.5 L 181 275.5 L 175 304 L 173 303.5 L 175 299.5 L 178 282.5 L 188 246 L 186 246 L 186 243 Q 183.3 244.1 184 241.5 L 183 241.5 Q 171.5 270.3 165 303 L 172 303.5 L 164 304 L 164 298.5 L 177 253.5 L 192 214.5 L 218 166.5 L 236.5 141 Z M 209 191 L 204 194 L 206 198 Q 208 197 206 196 L 210 193 Q 211 190 209 191 Z M 197 207 L 191 221 L 192 225 L 196 226 L 202 210 L 197 207 Z M 191 237 L 190 240 L 191 240 L 191 237 Z " /><path fill="rgb(232,136,145)" stroke="rgb(232,136,145)" stroke-width="1" opacity="0.984313725490196" d="M 244.5 143 L 244 144.5 L 242.5 147 L 243 145.5 L 244.5 143 Z " /><path fill="rgb(232,136,145)" stroke="rgb(232,136,145)" stroke-width="1" opacity="0.984313725490196" d="M 183.5 144 L 184 146.5 L 182.5 151 L 182 147.5 L 183.5 144 Z " /><path fill="rgb(232,136,145)" stroke="rgb(232,136,145)" stroke-width="1" opacity="0.984313725490196" d="M 241.5 148 L 241 149.5 L 222 184.5 L 218 194.5 Q 222.3 196.7 217.5 199 L 215 200.5 L 207 217.5 L 203 230.5 Q 205.3 231.8 204 236.5 L 201 238 L 200.5 236 L 190 265.5 L 185 288.5 L 189.5 285 L 208.5 274 L 207.5 276 L 184 290 L 190 261.5 L 205 219.5 L 229 168.5 L 241.5 148 Z " /><path fill="rgb(232,136,145)" stroke="rgb(232,136,145)" stroke-width="1" opacity="0.984313725490196" d="M 172.5 151 L 173 170.5 L 176 183.5 L 180.5 194 L 181 191.5 L 180 190.5 L 180 162.5 L 181 162.5 L 181 185.5 L 183 196.5 Q 181.5 199.5 180 196.5 L 172 175.5 L 171.5 169 L 170 172.5 L 170.5 174 Q 167.5 174.9 169 170.5 L 170 168 L 166 170 L 166 168 L 168 168 Q 166.9 165.3 169.5 166 L 171 166.5 Q 173.7 162.7 172 154.5 L 171 154.5 L 168.5 159 L 168 157.5 L 172.5 151 Z " /><path fill="rgb(232,136,145)" stroke="rgb(232,136,145)" stroke-width="1" opacity="0.984313725490196" d="M 181.5 153 L 182 158.5 L 181 158.5 L 181.5 153 Z " /><path fill="rgb(232,136,145)" stroke="rgb(232,136,145)" stroke-width="1" opacity="0.984313725490196" d="M 167.5 160 L 167 161.5 L 166.5 163 L 166 161.5 L 167.5 160 Z " /><path fill="rgb(232,136,145)" stroke="rgb(232,136,145)" stroke-width="1" opacity="0.984313725490196" d="M 165.5 164 L 167 166.5 L 165 166.5 L 159.5 178 L 159 176.5 L 165.5 164 Z " /><path fill="rgb(232,136,145)" stroke="rgb(232,136,145)" stroke-width="1" opacity="0.984313725490196" d="M 158.5 179 L 159 180.5 L 157 186.5 L 158 190 L 155 191.5 L 153.5 197 L 153 194.5 L 158.5 179 Z " /><path fill="rgb(232,136,145)" stroke="rgb(232,136,145)" stroke-width="1" opacity="0.984313725490196" d="M 285.5 190 L 284 192.5 L 267.5 210 L 254.5 219 L 234 228.5 L 236.5 229 Q 260.9 223.4 278.5 211 L 279 213.5 L 268.5 228 L 269 226.5 L 277 214.5 L 275.5 214 L 268.5 219 L 252 226.5 L 252 230 Q 255 229 254 232 Q 251.3 233.1 252 230.5 L 251 230.5 L 250.5 232 L 240.5 229 L 230.5 231 Q 227.5 229.5 230.5 228 L 241 224 L 241.5 222 L 243.5 222 Q 267.8 212.3 283 193.5 L 285.5 190 Z " /><path fill="rgb(232,136,145)" stroke="rgb(232,136,145)" stroke-width="1" opacity="0.984313725490196" d="M 152.5 198 L 153 201.5 L 152 201.5 L 152.5 198 Z " /><path fill="rgb(232,136,145)" stroke="rgb(232,136,145)" stroke-width="1" opacity="0.984313725490196" d="M 151.5 203 L 152 206.5 L 151 206.5 L 151.5 203 Z " /><path fill="rgb(232,136,145)" stroke="rgb(232,136,145)" stroke-width="1" opacity="0.984313725490196" d="M 150.5 208 L 151 213.5 L 150 213.5 L 150.5 208 Z " /><path fill="rgb(232,136,145)" stroke="rgb(232,136,145)" stroke-width="1" opacity="0.984313725490196" d="M 149.5 217 L 150 225.5 L 149 225.5 L 149.5 217 Z " /><path fill="rgb(232,136,145)" stroke="rgb(232,136,145)" stroke-width="1" opacity="0.984313725490196" d="M 267.5 229 L 263.5 234 L 267.5 229 Z " /><path fill="rgb(232,136,145)" stroke="rgb(232,136,145)" stroke-width="1" opacity="0.984313725490196" d="M 150.5 230 L 151 234.5 L 150 234.5 L 150.5 230 Z " /><path fill="rgb(232,136,145)" stroke="rgb(232,136,145)" stroke-width="1" opacity="0.984313725490196" d="M 255.5 235 L 260.5 236 L 262 235.5 L 260.5 238 L 258 239.5 L 253.5 245 L 239.5 256 L 241.5 253 Q 251.1 248.1 257 239.5 Q 251.7 237.2 255.5 235 Z " /><path fill="rgb(232,136,145)" stroke="rgb(232,136,145)" stroke-width="1" opacity="0.984313725490196" d="M 151.5 237 L 152 239.5 L 151 239.5 L 151.5 237 Z " /><path fill="rgb(232,136,145)" stroke="rgb(232,136,145)" stroke-width="1" opacity="0.984313725490196" d="M 139.5 244 L 148 256.5 L 145 255.5 L 144.5 257 L 139 245.5 L 139.5 244 Z " /><path fill="rgb(232,136,145)" stroke="rgb(232,136,145)" stroke-width="1" opacity="0.984313725490196" d="M 155.5 253 L 156.5 255 Q 157.8 252.8 159 255.5 L 158 260.5 L 160 265.5 L 159 265.5 L 155.5 253 Z " /><path fill="rgb(232,136,145)" stroke="rgb(232,136,145)" stroke-width="1" opacity="0.984313725490196" d="M 237.5 256 L 235.5 259 L 233.5 260 L 234.5 258 L 237.5 256 Z " /><path fill="rgb(232,136,145)" stroke="rgb(232,136,145)" stroke-width="1" opacity="0.984313725490196" d="M 148.5 258 L 153 265.5 L 151 264.5 L 148.5 258 Z " /><path fill="rgb(232,136,145)" stroke="rgb(232,136,145)" stroke-width="1" opacity="0.984313725490196" d="M 231.5 260 L 230.5 262 L 231.5 260 Z " /><path fill="rgb(232,136,145)" stroke="rgb(232,136,145)" stroke-width="1" opacity="0.984313725490196" d="M 228.5 262 L 227.5 264 L 225.5 265 L 226.5 263 L 228.5 262 Z " /><path fill="rgb(232,136,145)" stroke="rgb(232,136,145)" stroke-width="1" opacity="0.984313725490196" d="M 223.5 265 L 222.5 267 L 220.5 268 L 221.5 266 L 223.5 265 Z " /><path fill="rgb(232,136,145)" stroke="rgb(232,136,145)" stroke-width="1" opacity="0.984313725490196" d="M 153.5 267 L 162 282.5 L 163 288.5 L 161 296 Q 158.3 297.1 159 294.5 L 158 292.5 L 159 292.5 L 159.5 294 L 162 286.5 L 153.5 267 Z " /><path fill="rgb(232,136,145)" stroke="rgb(232,136,145)" stroke-width="1" opacity="0.984313725490196" d="M 218.5 268 L 217.5 270 L 218.5 268 Z " /><path fill="rgb(232,136,145)" stroke="rgb(232,136,145)" stroke-width="1" opacity="0.984313725490196" d="M 214.5 270 L 216 270.5 L 213.5 272 L 214.5 270 Z " /><path fill="rgb(232,136,145)" stroke="rgb(232,136,145)" stroke-width="1" opacity="0.984313725490196" d="M 211.5 272 L 210.5 274 L 211.5 272 Z " /><path fill="rgb(232,136,145)" stroke="rgb(232,136,145)" stroke-width="1" opacity="0.984313725490196" d="M 227.5 279 L 235 279.5 L 230.5 281 L 227.5 280 L 227.5 282 L 222.5 281 L 210.5 284 L 210.5 283 L 227.5 279 Z " /><path fill="rgb(232,136,145)" stroke="rgb(232,136,145)" stroke-width="1" opacity="0.984313725490196" d="M 207.5 284 L 209 284.5 L 188.5 294 L 182 299.5 L 180.5 304 L 180 301.5 L 185.5 295 L 207.5 284 Z " /><path fill="rgb(232,136,145)" stroke="rgb(232,136,145)" stroke-width="1" opacity="0.984313725490196" d="M 202.5 290 L 204 290.5 L 200.5 292 L 200.5 291 L 202.5 290 Z " /><path fill="rgb(232,136,145)" stroke="rgb(232,136,145)" stroke-width="1" opacity="0.984313725490196" d="M 196.5 293 L 195.5 295 L 196.5 293 Z " /><path fill="rgb(232,136,145)" stroke="rgb(232,136,145)" stroke-width="1" opacity="0.984313725490196" d="M 191.5 296 L 190.5 298 L 188.5 299 L 189.5 297 L 191.5 296 Z " /><path fill="rgb(232,136,145)" stroke="rgb(232,136,145)" stroke-width="1" opacity="0.984313725490196" d="M 186.5 299 L 185.5 301 L 182.5 303 L 184.5 300 L 186.5 299 Z " /><path fill="rgb(232,136,145)" stroke="rgb(232,136,145)" stroke-width="1" opacity="0.984313725490196" d="M 148 309 L 186.5 309 L 188 310.5 L 186.5 310 L 149.5 310 L 148 311.5 L 147.5 316 L 147 311.5 L 148 309 Z " /><path fill="rgb(232,136,145)" stroke="rgb(232,136,145)" stroke-width="1" opacity="0.984313725490196" d="M 146.5 318 L 147 320 L 159.5 320 L 160.5 321 L 186.5 321 L 188 320.5 L 186.5 322 L 154.5 322 Q 153 319.5 147.5 321 L 146 319.5 L 146.5 318 Z " /><path fill="rgb(232,136,145)" stroke="rgb(232,136,145)" stroke-width="1" opacity="0.984313725490196" d="M 148.5 325 Q 153.3 323.8 154.5 326 L 176.5 326 Q 178 328.5 183.5 327 L 185 328.5 L 185 333.5 L 191 356.5 L 191 361.5 Q 174.8 378.8 164 401.5 L 166.5 402 Q 203.6 390.6 227 365.5 Q 231.5 361 232 352.5 L 227.5 346 L 220.5 343 L 207 341.5 L 209.5 340 L 221.5 340 L 231.5 342 L 240 348.5 Q 242.5 352 241 359.5 Q 234.7 373.7 222.5 382 Q 202.1 397.1 176.5 407 L 142.5 416 Q 137.8 414.7 136.5 417 L 118.5 417 L 109.5 415 Q 102.8 412.8 99 407.5 L 98 399.5 L 102 391.5 L 116.5 377 L 121.5 374 L 109 387.5 Q 105 391.5 105 399.5 L 110.5 406 L 121.5 409 L 130.5 409 L 131.5 408 L 146.5 407 L 156 403.5 L 156 400.5 L 153 395.5 L 149 382.5 L 134 358.5 L 144.5 334 L 145 335.5 L 144 338 L 150 341 L 152 348.5 L 152 350.5 L 153.5 355 L 157.5 350 L 163.5 348 L 167 349 L 166 343 L 168 342.5 L 167.5 341 L 173.5 339 L 174.5 342 L 180 343 L 180 347 L 178.5 347 Q 180.2 349 176.5 351 Q 171.8 350.3 170 352.5 L 173 358.5 L 170 364.5 L 175.5 366 L 177 365.5 Q 176.1 368.5 180.5 367 L 183.5 369 L 187 362.5 L 184 358.5 L 185 356 L 183 355.5 Q 185.5 350.7 188 352.5 L 183 328 L 147 326.5 L 148.5 325 Z M 219 341 L 219 342 L 221 342 L 219 341 Z M 222 342 L 222 343 L 229 346 L 234 346 Q 231 341 222 342 Z M 238 348 L 236 352 L 233 353 L 230 362 L 234 369 L 240 360 Q 242 351 238 348 Z M 163 349 L 158 351 L 154 358 Q 155 365 160 369 L 159 370 L 159 393 L 158 394 L 158 404 L 160 404 L 161 403 Q 159 396 162 395 L 162 382 L 164 375 L 164 368 L 171 362 L 170 354 L 167 350 L 163 349 Z M 141 358 L 137 359 L 140 364 L 142 363 L 142 359 L 141 358 Z M 214 380 L 215 384 L 216 382 L 214 380 Z M 212 381 L 210 383 L 213 383 L 212 381 Z M 209 383 L 205 386 L 210 387 Q 213 385 209 383 Z M 213 384 L 212 387 L 213 387 L 213 384 Z M 107 388 L 105 391 L 107 390 L 107 388 Z M 105 391 L 101 397 L 103 396 L 104 400 L 105 394 L 105 391 Z " /><path fill="rgb(232,136,145)" stroke="rgb(232,136,145)" stroke-width="1" opacity="0.984313725490196" d="M 220 327 Q 225.6 325.1 224 330 Q 218.4 331.9 220 327 Z " /><path fill="rgb(232,136,145)" stroke="rgb(232,136,145)" stroke-width="1" opacity="0.984313725490196" d="M 202.5 328 Q 207 330 203.5 332 L 201 330.5 L 202.5 328 Z " /><path fill="rgb(232,136,145)" stroke="rgb(232,136,145)" stroke-width="1" opacity="0.984313725490196" d="M 257.5 337 L 259.5 337 L 263 340.5 L 260 339.5 Q 258.8 344.8 261.5 346 L 263 345.5 L 262.5 344 L 264 344.5 L 264.5 342 L 265 344.5 L 264.5 346 Q 266.8 345.3 266 347.5 L 265 349.5 L 266 351.5 L 262.5 358 L 261 354.5 Q 263.6 353.1 263 348.5 L 259 344.5 Q 259.8 338.3 257.5 337 Z " /><path fill="rgb(232,136,145)" stroke="rgb(232,136,145)" stroke-width="1" opacity="0.984313725490196" d="M 205.5 352 L 208 353.5 L 206.5 357 L 203 354.5 L 205.5 352 Z M 206 353 Q 203 357 207 356 L 206 353 Z " /><path fill="rgb(232,136,145)" stroke="rgb(232,136,145)" stroke-width="1" opacity="0.984313725490196" d="M 121.5 356 L 122 357.5 L 119.5 359 L 119.5 358 Q 122 358.7 121.5 356 Z " /><path fill="rgb(232,136,145)" stroke="rgb(232,136,145)" stroke-width="1" opacity="0.984313725490196" d="M 256 363 L 260 364.5 L 256.5 367 L 256.5 366 L 259 364.5 L 257.5 364 L 256 364.5 L 256 363 Z " /><path fill="rgb(232,136,145)" stroke="rgb(232,136,145)" stroke-width="1" opacity="0.984313725490196" d="M 102.5 364 L 102 365.5 L 103 367.5 L 101 366.5 L 102.5 364 Z " /><path fill="rgb(232,136,145)" stroke="rgb(232,136,145)" stroke-width="1" opacity="0.984313725490196" d="M 210.5 365 L 212 368 Q 208.3 369.5 209 366.5 L 210.5 365 Z " /><path fill="rgb(232,136,145)" stroke="rgb(232,136,145)" stroke-width="1" opacity="0.984313725490196" d="M 245 370 Q 248 369 247 372 Q 244 373 245 370 Z " /><path fill="rgb(232,136,145)" stroke="rgb(232,136,145)" stroke-width="1" opacity="0.984313725490196" d="M 198.5 372 Q 203 374 199.5 376 L 197 374.5 L 198.5 372 Z " /><path fill="rgb(232,136,145)" stroke="rgb(232,136,145)" stroke-width="1" opacity="0.984313725490196" d="M 237 375 Q 240 374 239 377 Q 236 378 237 375 Z " /><path fill="rgb(232,136,145)" stroke="rgb(232,136,145)" stroke-width="1" opacity="0.984313725490196" d="M 82 381 Q 86.1 379.3 85 383.5 L 82.5 385 L 82.5 384 Q 84.8 384.8 84 382.5 L 82 382.5 L 82 381 Z " /><path fill="rgb(232,136,145)" stroke="rgb(232,136,145)" stroke-width="1" opacity="0.984313725490196" d="M 246.5 381 L 245.5 383 L 244 382.5 L 246.5 381 Z " /><path fill="rgb(232,136,145)" stroke="rgb(232,136,145)" stroke-width="1" opacity="0.984313725490196" d="M 126 385 L 129 386.5 Q 128.3 388.8 130.5 388 L 132.5 391 L 128 394.5 L 127.5 396 L 122 389 L 126 386.5 L 126 385 Z " /><path fill="rgb(232,136,145)" stroke="rgb(232,136,145)" stroke-width="1" opacity="0.984313725490196" d="M 78 386 Q 81 385 80 388 Q 77 389 78 386 Z " /><path fill="rgb(232,136,145)" stroke="rgb(232,136,145)" stroke-width="1" opacity="0.984313725490196" d="M 91.5 387 L 94 387.5 Q 91.9 390.8 91.5 387 Z " /><path fill="rgb(232,136,145)" stroke="rgb(232,136,145)" stroke-width="1" opacity="0.984313725490196" d="M 233 390 Q 236.8 389.3 238 392.5 L 235.5 397 L 235 395.5 Q 238.8 393.8 235.5 392 L 232 393.5 L 232.5 395 Q 229.3 393.3 233 391.5 L 233 390 Z " /><path fill="rgb(232,136,145)" stroke="rgb(232,136,145)" stroke-width="1" opacity="0.984313725490196" d="M 73.5 393 L 76 393.5 Q 76.7 396.5 73 395 L 73.5 393 Z " /><path fill="rgb(232,136,145)" stroke="rgb(232,136,145)" stroke-width="1" opacity="0.984313725490196" d="M 219.5 395 Q 222.5 396.5 219.5 398 L 219.5 395 Z " /><path fill="rgb(232,136,145)" stroke="rgb(232,136,145)" stroke-width="1" opacity="0.984313725490196" d="M 84.5 397 Q 89.5 396.5 90 400.5 L 86.5 405 Q 81.5 405.5 81 401.5 L 84.5 397 Z " /><path fill="rgb(232,136,145)" stroke="rgb(232,136,145)" stroke-width="1" opacity="0.984313725490196" d="M 192 404 Q 195 403 194 406 Q 191 407 192 404 Z " /><path fill="rgb(232,136,145)" stroke="rgb(232,136,145)" stroke-width="1" opacity="0.984313725490196" d="M 208.5 406 Q 211.5 405.2 210 409 Q 206.2 410.5 207 407.5 L 208.5 406 Z " /><path fill="rgb(232,136,145)" stroke="rgb(232,136,145)" stroke-width="1" opacity="0.984313725490196" d="M 178.5 413 L 176.5 416 L 159.5 424 L 140.5 430 L 125.5 433 L 103.5 434 L 88.5 431 Q 81.8 428.8 78 423.5 Q 75.2 420.8 76 414.5 L 77 414.5 L 80 422 L 90.5 427 L 102.5 428 L 103.5 429 L 113.5 429 L 115.5 428 L 117.5 429 L 118.5 428 L 135.5 427 L 159.5 421 L 171.5 417 L 178.5 413 Z " /><path fill="rgb(232,136,145)" stroke="rgb(232,136,145)" stroke-width="1" opacity="0.984313725490196" d="M 192.5 415 L 194 417.5 Q 192.5 420.5 191 417.5 L 192.5 415 Z " /><path fill="rgb(232,136,145)" stroke="rgb(232,136,145)" stroke-width="1" opacity="0.984313725490196" d="M 92.5 416 Q 94.8 415.3 94 417.5 L 92.5 416 Z " /><path fill="rgb(232,136,145)" stroke="rgb(232,136,145)" stroke-width="1" opacity="0.984313725490196" d="M 114.5 423 Q 117.1 422.3 116 425 L 113 424.5 L 114.5 423 Z " /><path fill="rgb(232,136,145)" stroke="rgb(232,136,145)" stroke-width="1" opacity="0.984313725490196" d="M 179.5 424 Q 181.8 423.3 181 425.5 L 179.5 424 Z " /><path fill="rgb(243,239,239)" stroke="rgb(243,239,239)" stroke-width="1" opacity="0.7333333333333333" d="M 360.5 1 L 364 3.5 L 363 6.5 Q 365.5 8 362 9.5 L 363 14.5 Q 359.9 16.3 361.5 18 Q 358.5 17.1 360 21.5 Q 362.5 23 359 24.5 L 360 27.5 L 358 28 L 359 33.5 Q 355.9 35.3 357.5 37 Q 354.9 36.2 356 39.5 L 356.5 41 Q 353.9 40.2 355 43.5 L 355.5 45 Q 352.5 44.1 354 48.5 L 355 50.5 L 352 53.5 L 350 63.5 L 350.5 65 Q 348.3 64.3 349 66.5 L 347 72.5 L 347.5 74 Q 344.9 73.2 346 76.5 L 346 78.5 Q 342.3 81.3 342 87.5 Q 344.5 89 341 90.5 L 338 97.5 L 338 99.5 L 336.5 102 Q 334.3 101.3 335 103.5 L 334 107 L 331 108.5 L 329.5 111 L 324 115.5 Q 326.5 117 323 118.5 L 324 122.5 Q 320.9 124.3 322.5 126 L 319 128.5 L 318 133 Q 315.3 131.9 316 134.5 L 310 146.5 L 310.5 148 L 308 149.5 L 305 159.5 L 302 163.5 L 302.5 165 Q 300.3 164.3 301 166.5 L 299 169.5 L 299.5 171 L 298 171 L 298 174 Q 295.3 172.9 296 175.5 L 295 177.5 Q 297.5 179 294 180.5 L 294 183 Q 291.3 181.9 292 184.5 L 292 186.5 L 291 197.5 L 288.5 201 L 287 201.5 L 288 203.5 L 284 206 L 283 208.5 L 284 209.5 Q 280.9 211.3 282.5 213 L 278 216.5 L 278 219 L 276 219 L 276 222 Q 273.3 220.9 274 223.5 L 274.5 225 L 272 226.5 L 270 229.5 L 263.5 237 Q 261.3 236.3 262 238.5 L 256.5 245 L 251 248 L 247.5 253 L 245 254.5 L 243.5 257 L 240 257 Q 241.7 261.1 237.5 260 L 226 267.5 L 226 269 Q 222.3 267.5 223 270.5 Q 225.3 275.3 227.5 271 L 237.5 271 L 244 277.5 Q 244.8 280.1 241.5 279 L 232.5 283 L 223.5 284 L 219 286.5 Q 221.2 287.8 218.5 289 Q 212.4 287.9 210 290.5 L 211 293.5 L 207.5 295 L 203.5 294 L 200.5 298 Q 193.8 295.8 196 302.5 L 193 308 L 191 308.5 L 191 319 L 196.5 319 Q 197.2 322.7 202.5 322 L 204.5 321 Q 205.2 324.7 210.5 324 Q 211.5 321 216.5 322 L 219.5 324 L 223.5 324 L 228.5 326 L 239.5 326 L 240.5 325 L 248.5 325 Q 250 328.5 251.5 326 L 257.5 326 L 265.5 329 L 268 331.5 L 269 335.5 L 267 339.5 L 269 342.5 L 268 343.5 L 268 356.5 L 271 361.5 L 273 373 L 271 373.5 L 272 376 L 268.5 377 L 258.5 377 L 252 378 Q 253.3 382.6 250.5 384 Q 246.5 383.5 246 386.5 Q 248.7 388.2 244.5 390 L 243 390.5 L 244 392.5 L 240 394 Q 241.5 397.7 238.5 397 Q 235.6 400.6 227.5 399 L 224 401 L 223 405.5 L 223 423 L 221 423.5 L 222 424.5 L 218.5 428 L 184.5 427 L 181.5 429 L 173.5 430 Q 164.4 437.9 150.5 441 L 141.5 439 Q 138.2 441.7 131.5 441 L 114.5 436 L 97.5 436 L 94.5 434 L 85.5 432 L 78 428 L 76.5 425 L 73.5 425 L 68 421.5 L 67 416.5 L 67 401.5 L 66 400.5 L 66 380.5 L 68 374 L 78.5 373 L 81.5 374 L 91 372 Q 90 368.2 92.5 367 L 97 368 L 101.5 360 L 105.5 361 L 114 357.5 L 116 352 L 118.5 351 L 121 352 L 122.5 348 L 131 343 L 135.5 335 L 141 333 L 143.5 327 L 145 326.5 L 145 319.5 L 145 317.5 L 146 308.5 L 148 305 Q 153.6 303.5 157 298.5 L 155 287.5 L 150 273.5 L 144 261.5 L 144 258.5 L 140 252.5 L 140 249.5 L 135 243.5 L 133 235.5 L 134 233 L 136.5 232 Q 138 234.5 139.5 231 L 147 226.5 L 147 210.5 L 149 207.5 L 151 194.5 L 159 171.5 L 171.5 148 Q 173.8 148.8 173 146.5 L 176.5 141 L 180.5 144 L 187 129.5 L 200 112 Q 202.7 113.1 202 110.5 L 222 89.5 L 222 88 L 226 85.5 Q 225.3 83.3 227.5 84 L 237.5 72 L 241.5 71 Q 245.7 72.8 243 74.5 Q 241.1 80.8 246 79 L 251 69.5 L 251 66.5 L 258 56 L 286 37.5 Q 285.3 35.3 287.5 36 L 295.5 31 L 297.5 31 L 310.5 23 L 312.5 23 L 316.5 20 L 318.5 20 L 324.5 16 L 326.5 16 Q 331.7 15.7 333.5 12 L 334.5 13 L 338.5 11 L 346.5 7 L 349.5 7 L 355.5 3 Q 357 5.5 358.5 2 L 360.5 1 Z M 359 4 L 326 18 L 297 33 L 263 55 Q 255 61 252 71 L 243 100 L 241 98 L 241 90 L 240 89 L 240 77 L 241 76 Q 242 73 240 74 Q 214 98 192 126 Q 185 135 182 148 L 181 162 L 180 163 L 180 191 L 181 192 L 181 194 L 176 184 L 173 171 L 173 151 L 168 158 L 157 182 L 152 199 L 150 209 L 150 217 L 149 218 L 150 235 L 153 249 L 161 272 L 165 277 L 166 276 L 169 263 L 181 228 L 197 193 Q 224 144 260 105 L 307 60 L 308 61 Q 282 88 259 120 L 229 169 Q 212 201 198 238 L 190 262 L 184 290 L 236 259 L 254 245 L 258 240 L 261 238 L 279 214 L 279 211 Q 261 223 237 229 L 234 229 L 255 219 L 268 210 Q 280 201 288 188 L 319 125 L 301 132 L 291 134 L 286 134 Q 311 123 331 108 L 338 96 L 347 70 L 354 45 L 362 6 Q 363 3 359 4 Z M 262 109 Q 226 148 201 197 L 192 215 L 180 245 L 164 299 L 164 304 L 175 304 L 181 276 Q 187 261 190 245 L 205 206 L 214 187 L 237 146 L 262 111 L 262 109 Z M 140 244 L 139 246 L 146 260 L 159 295 Q 158 297 161 296 L 163 289 L 162 283 L 155 269 L 140 244 Z M 228 279 L 205 285 L 186 295 L 180 302 L 181 304 L 200 292 L 219 284 L 235 280 L 228 279 Z M 148 309 L 146 320 L 148 321 Q 153 320 155 322 L 187 322 L 189 317 L 188 311 L 187 309 L 148 309 Z M 149 325 L 134 359 L 149 383 L 153 396 L 156 401 L 156 404 L 147 407 L 132 408 L 131 409 L 122 409 L 111 406 L 105 400 Q 105 392 109 388 L 122 374 L 117 377 L 102 392 L 98 400 L 99 408 Q 103 413 110 415 L 119 417 L 137 417 Q 138 415 143 416 L 177 407 Q 202 397 223 382 Q 235 374 241 360 Q 243 352 240 349 L 232 342 L 222 340 L 210 340 L 207 342 L 221 343 L 228 346 L 232 353 Q 231 361 227 366 Q 204 391 167 402 L 164 402 Q 175 379 191 362 L 191 357 L 185 334 L 185 329 L 184 327 Q 178 329 177 326 L 155 326 Q 153 324 149 325 Z M 220 327 Q 218 332 224 330 Q 226 325 220 327 Z M 203 328 L 201 331 L 204 332 Q 207 330 203 328 Z M 246 329 Q 243 333 247 332 L 246 329 Z M 258 337 Q 260 338 259 345 L 263 349 Q 264 353 261 355 L 263 358 L 266 352 L 265 350 L 266 348 L 265 343 L 260 337 L 258 337 Z M 206 352 L 203 355 L 207 357 L 208 354 L 206 352 Z M 119 356 L 119 359 L 122 358 Q 123 354 119 356 Z M 256 363 L 256 367 L 260 365 L 256 363 Z M 103 364 L 101 366 L 103 368 L 105 367 Q 106 363 103 364 Z M 211 365 L 209 367 Q 208 370 212 368 L 211 365 Z M 245 370 Q 244 373 247 372 Q 248 369 245 370 Z M 199 372 L 197 375 L 200 376 Q 203 374 199 372 Z M 237 375 Q 236 378 239 377 Q 240 374 237 375 Z M 244 380 L 244 383 L 247 382 L 244 380 Z M 82 381 L 82 385 L 85 384 Q 86 379 82 381 Z M 126 385 L 126 387 L 122 389 L 128 396 L 128 395 L 133 391 L 131 388 Q 128 389 129 387 L 126 385 Z M 78 386 Q 77 389 80 388 Q 81 385 78 386 Z M 92 387 Q 92 391 94 388 L 92 387 Z M 233 390 L 231 394 L 236 397 L 238 393 Q 237 389 233 390 Z M 73 393 Q 72 396 76 395 Q 77 392 73 393 Z M 220 395 L 220 398 Q 223 397 220 395 Z M 85 397 L 81 402 Q 81 406 87 405 L 90 401 Q 90 397 85 397 Z M 192 404 Q 191 407 194 406 Q 195 403 192 404 Z M 209 406 L 207 408 Q 206 410 210 409 Q 211 405 209 406 Z M 77 414 Q 75 420 78 424 Q 82 429 89 431 L 104 434 L 126 433 L 141 430 L 160 424 L 177 416 L 178 414 L 167 419 L 136 427 L 119 428 L 118 429 L 116 428 L 114 429 L 104 429 L 103 428 L 91 427 L 80 422 L 77 414 Z M 193 415 L 191 418 Q 193 421 194 418 L 193 415 Z M 93 416 L 94 418 Q 95 415 93 416 Z M 115 423 L 113 425 L 116 425 Q 117 422 115 423 Z M 180 424 L 181 426 Q 182 423 180 424 Z " /><path fill="rgb(243,239,239)" stroke="rgb(243,239,239)" stroke-width="1" opacity="0.7333333333333333" d="M 162.5 349 L 166.5 350 L 170 353.5 L 171 361.5 L 164 367.5 L 164 374.5 L 162 381.5 L 162 394.5 Q 159.3 396.2 161 402.5 L 159.5 404 L 158 403.5 L 158 393.5 L 159 392.5 L 159 369.5 L 160 368.5 Q 155.3 364.7 154 357.5 L 157.5 351 L 162.5 349 Z " /></svg>